<mxfile host="65bd71144e">
    <diagram name="Page-1" id="EOQ1mQuRTkzZq5WZiUtS">
        <mxGraphModel dx="468" dy="-599" grid="1" gridSize="10" guides="1" tooltips="1" connect="1" arrows="1" fold="1" page="1" pageScale="1" pageWidth="827" pageHeight="1169" math="0" shadow="0">
            <root>
                <mxCell id="0"/>
                <mxCell id="1" parent="0"/>
                <mxCell id="XqBBn5qqIs2NIF__hwd7-95" value="" style="rounded=1;whiteSpace=wrap;html=1;fillColor=none;fontColor=#333333;strokeColor=#67AB9F;strokeWidth=3;" parent="1" vertex="1">
                    <mxGeometry x="650" y="1441.5" width="280" height="170" as="geometry"/>
                </mxCell>
                <mxCell id="XqBBn5qqIs2NIF__hwd7-96" style="rounded=0;orthogonalLoop=1;jettySize=auto;html=1;exitX=1;exitY=0.5;exitDx=0;exitDy=0;entryX=0;entryY=0.5;entryDx=0;entryDy=0;" parent="1" source="XqBBn5qqIs2NIF__hwd7-98" target="XqBBn5qqIs2NIF__hwd7-99" edge="1">
                    <mxGeometry relative="1" as="geometry">
                        <mxPoint x="151.84209293149524" y="1430.571217585827" as="targetPoint"/>
                    </mxGeometry>
                </mxCell>
                <mxCell id="XqBBn5qqIs2NIF__hwd7-97" value="related" style="edgeLabel;html=1;align=center;verticalAlign=middle;resizable=0;points=[];" parent="XqBBn5qqIs2NIF__hwd7-96" vertex="1" connectable="0">
                    <mxGeometry x="-0.2079" y="2" relative="1" as="geometry">
                        <mxPoint as="offset"/>
                    </mxGeometry>
                </mxCell>
                <mxCell id="XqBBn5qqIs2NIF__hwd7-98" value="CHEBI:1&lt;div&gt;&lt;span style=&quot;font-weight: normal;&quot;&gt;ChemicalEntity&lt;/span&gt;&lt;/div&gt;" style="ellipse;whiteSpace=wrap;html=1;aspect=fixed;fillColor=#E1D5E7;strokeColor=#000000;fontStyle=1" parent="1" vertex="1">
                    <mxGeometry x="30" y="1451.5" width="60" height="60" as="geometry"/>
                </mxCell>
                <mxCell id="XqBBn5qqIs2NIF__hwd7-99" value="UMLS:1&lt;div&gt;&lt;span style=&quot;font-family: sans-serif; font-weight: 400; text-align: start; text-wrap-mode: nowrap;&quot;&gt;DiseaseOrPhenotypicFeature&lt;/span&gt;&lt;/div&gt;" style="ellipse;whiteSpace=wrap;html=1;aspect=fixed;fillColor=#E1D5E7;strokeColor=#000000;fontStyle=1" parent="1" vertex="1">
                    <mxGeometry x="170" y="1356.5" width="60" height="60" as="geometry"/>
                </mxCell>
                <mxCell id="XqBBn5qqIs2NIF__hwd7-100" value="treats" style="rounded=0;orthogonalLoop=1;jettySize=auto;html=1;exitX=1;exitY=0.5;exitDx=0;exitDy=0;entryX=0;entryY=0.5;entryDx=0;entryDy=0;" parent="1" source="XqBBn5qqIs2NIF__hwd7-103" target="XqBBn5qqIs2NIF__hwd7-104" edge="1">
                    <mxGeometry relative="1" as="geometry"/>
                </mxCell>
                <mxCell id="XqBBn5qqIs2NIF__hwd7-101" style="edgeStyle=none;rounded=0;orthogonalLoop=1;jettySize=auto;html=1;exitX=1;exitY=0.5;exitDx=0;exitDy=0;entryX=0;entryY=0.5;entryDx=0;entryDy=0;fillColor=#ffe6cc;strokeColor=#d79b00;dashed=1;" parent="1" source="XqBBn5qqIs2NIF__hwd7-103" target="XqBBn5qqIs2NIF__hwd7-111" edge="1">
                    <mxGeometry relative="1" as="geometry"/>
                </mxCell>
                <mxCell id="XqBBn5qqIs2NIF__hwd7-102" value="normalization" style="edgeLabel;html=1;align=center;verticalAlign=middle;resizable=0;points=[];" parent="XqBBn5qqIs2NIF__hwd7-101" vertex="1" connectable="0">
                    <mxGeometry x="-0.0256" y="3" relative="1" as="geometry">
                        <mxPoint x="8" y="3" as="offset"/>
                    </mxGeometry>
                </mxCell>
                <mxCell id="XqBBn5qqIs2NIF__hwd7-103" value="CHEMBL:1&lt;div&gt;&lt;span style=&quot;font-weight: normal;&quot;&gt;SmallMolecule&lt;/span&gt;&lt;/div&gt;" style="ellipse;whiteSpace=wrap;html=1;aspect=fixed;fillColor=#FFCE9F;strokeColor=#000000;fontStyle=1" parent="1" vertex="1">
                    <mxGeometry x="30" y="1571.5" width="60" height="60" as="geometry"/>
                </mxCell>
                <mxCell id="XqBBn5qqIs2NIF__hwd7-104" value="MONDO:1&lt;div&gt;&lt;span style=&quot;font-weight: 400;&quot;&gt;Disease&lt;/span&gt;&lt;/div&gt;" style="ellipse;whiteSpace=wrap;html=1;aspect=fixed;fillColor=#FFCE9F;strokeColor=#000000;fontStyle=1" parent="1" vertex="1">
                    <mxGeometry x="170" y="1651.5" width="60" height="60" as="geometry"/>
                </mxCell>
                <mxCell id="XqBBn5qqIs2NIF__hwd7-105" style="rounded=0;orthogonalLoop=1;jettySize=auto;html=1;exitX=1;exitY=0.5;exitDx=0;exitDy=0;entryX=0;entryY=0.5;entryDx=0;entryDy=0;" parent="1" source="XqBBn5qqIs2NIF__hwd7-107" target="XqBBn5qqIs2NIF__hwd7-108" edge="1">
                    <mxGeometry relative="1" as="geometry">
                        <mxPoint x="461.84209293149524" y="1430.571217585827" as="targetPoint"/>
                    </mxGeometry>
                </mxCell>
                <mxCell id="XqBBn5qqIs2NIF__hwd7-106" value="related_to" style="edgeLabel;html=1;align=center;verticalAlign=middle;resizable=0;points=[];" parent="XqBBn5qqIs2NIF__hwd7-105" vertex="1" connectable="0">
                    <mxGeometry x="0.0824" y="-2" relative="1" as="geometry">
                        <mxPoint as="offset"/>
                    </mxGeometry>
                </mxCell>
                <mxCell id="XqBBn5qqIs2NIF__hwd7-107" value="CHEBI:1&lt;div&gt;&lt;span style=&quot;font-weight: 400;&quot;&gt;ChemicalEntity&lt;/span&gt;&lt;/div&gt;" style="ellipse;whiteSpace=wrap;html=1;aspect=fixed;fillColor=#E1D5E7;strokeColor=#000000;fontStyle=1" parent="1" vertex="1">
                    <mxGeometry x="340" y="1451.5" width="60" height="60" as="geometry"/>
                </mxCell>
                <mxCell id="XqBBn5qqIs2NIF__hwd7-108" value="MONDO:1&lt;div&gt;&lt;span style=&quot;font-family: sans-serif; font-weight: 400; text-align: start; text-wrap-mode: nowrap;&quot;&gt;DiseaseOrPhenotypicFeature&lt;/span&gt;&lt;/div&gt;" style="ellipse;whiteSpace=wrap;html=1;aspect=fixed;fillColor=#E1D5E7;strokeColor=#000000;fontStyle=1" parent="1" vertex="1">
                    <mxGeometry x="490" y="1356.5" width="60" height="60" as="geometry"/>
                </mxCell>
                <mxCell id="XqBBn5qqIs2NIF__hwd7-109" style="rounded=0;orthogonalLoop=1;jettySize=auto;html=1;exitX=1;exitY=0.5;exitDx=0;exitDy=0;entryX=0;entryY=0.5;entryDx=0;entryDy=0;" parent="1" source="XqBBn5qqIs2NIF__hwd7-111" target="XqBBn5qqIs2NIF__hwd7-112" edge="1">
                    <mxGeometry relative="1" as="geometry"/>
                </mxCell>
                <mxCell id="XqBBn5qqIs2NIF__hwd7-110" value="treats" style="edgeLabel;html=1;align=center;verticalAlign=middle;resizable=0;points=[];" parent="XqBBn5qqIs2NIF__hwd7-109" vertex="1" connectable="0">
                    <mxGeometry x="-0.0405" y="-2" relative="1" as="geometry">
                        <mxPoint as="offset"/>
                    </mxGeometry>
                </mxCell>
                <mxCell id="XqBBn5qqIs2NIF__hwd7-111" value="CHEBI:1&lt;div&gt;&lt;span style=&quot;font-weight: 400;&quot;&gt;SmallMolecule&lt;/span&gt;&lt;/div&gt;" style="ellipse;whiteSpace=wrap;html=1;aspect=fixed;fillColor=#FFCE9F;strokeColor=#000000;fontStyle=1" parent="1" vertex="1">
                    <mxGeometry x="340" y="1571.5" width="60" height="60" as="geometry"/>
                </mxCell>
                <mxCell id="XqBBn5qqIs2NIF__hwd7-112" value="MONDO:1&lt;div&gt;&lt;span style=&quot;font-weight: 400;&quot;&gt;Disease&lt;/span&gt;&lt;/div&gt;" style="ellipse;whiteSpace=wrap;html=1;aspect=fixed;fillColor=#FFCE9F;strokeColor=#000000;fontStyle=1" parent="1" vertex="1">
                    <mxGeometry x="500" y="1651.5" width="60" height="60" as="geometry"/>
                </mxCell>
                <mxCell id="XqBBn5qqIs2NIF__hwd7-113" style="rounded=0;orthogonalLoop=1;jettySize=auto;html=1;exitX=1;exitY=0.5;exitDx=0;exitDy=0;entryX=0;entryY=0.5;entryDx=0;entryDy=0;edgeStyle=orthogonalEdgeStyle;curved=1;" parent="1" source="XqBBn5qqIs2NIF__hwd7-117" target="XqBBn5qqIs2NIF__hwd7-118" edge="1">
                    <mxGeometry relative="1" as="geometry">
                        <mxPoint x="921.8420929314952" y="1405.571217585827" as="targetPoint"/>
                        <Array as="points">
                            <mxPoint x="730" y="1501.5"/>
                            <mxPoint x="850" y="1501.5"/>
                        </Array>
                    </mxGeometry>
                </mxCell>
                <mxCell id="XqBBn5qqIs2NIF__hwd7-114" value="related_to" style="edgeLabel;html=1;align=center;verticalAlign=middle;resizable=0;points=[];" parent="XqBBn5qqIs2NIF__hwd7-113" vertex="1" connectable="0">
                    <mxGeometry x="-0.044" y="-1" relative="1" as="geometry">
                        <mxPoint as="offset"/>
                    </mxGeometry>
                </mxCell>
                <mxCell id="XqBBn5qqIs2NIF__hwd7-115" style="edgeStyle=orthogonalEdgeStyle;rounded=0;orthogonalLoop=1;jettySize=auto;html=1;exitX=1;exitY=0.5;exitDx=0;exitDy=0;entryX=0;entryY=0.5;entryDx=0;entryDy=0;curved=1;" parent="1" source="XqBBn5qqIs2NIF__hwd7-117" target="XqBBn5qqIs2NIF__hwd7-118" edge="1">
                    <mxGeometry relative="1" as="geometry">
                        <Array as="points">
                            <mxPoint x="730" y="1551.5"/>
                            <mxPoint x="850" y="1551.5"/>
                        </Array>
                    </mxGeometry>
                </mxCell>
                <mxCell id="XqBBn5qqIs2NIF__hwd7-116" value="treats" style="edgeLabel;html=1;align=center;verticalAlign=middle;resizable=0;points=[];" parent="XqBBn5qqIs2NIF__hwd7-115" vertex="1" connectable="0">
                    <mxGeometry x="-0.0083" y="-1" relative="1" as="geometry">
                        <mxPoint as="offset"/>
                    </mxGeometry>
                </mxCell>
                <mxCell id="XqBBn5qqIs2NIF__hwd7-117" value="CHEBI:1&lt;div&gt;&lt;span style=&quot;font-weight: 400;&quot;&gt;SmallMolecule&lt;/span&gt;&lt;/div&gt;" style="ellipse;whiteSpace=wrap;html=1;aspect=fixed;fillColor=#A9C4EB;strokeColor=#d6b656;fontStyle=1" parent="1" vertex="1">
                    <mxGeometry x="670" y="1496.5" width="60" height="60" as="geometry"/>
                </mxCell>
                <mxCell id="XqBBn5qqIs2NIF__hwd7-118" value="MONDO:1&lt;div&gt;&lt;span style=&quot;font-weight: 400;&quot;&gt;Disease&lt;/span&gt;&lt;/div&gt;" style="ellipse;whiteSpace=wrap;html=1;aspect=fixed;fillColor=#A9C4EB;strokeColor=#6c8ebf;fontStyle=1" parent="1" vertex="1">
                    <mxGeometry x="850" y="1496.5" width="60" height="60" as="geometry"/>
                </mxCell>
                <mxCell id="XqBBn5qqIs2NIF__hwd7-119" style="edgeStyle=none;rounded=0;orthogonalLoop=1;jettySize=auto;html=1;exitX=1;exitY=0.5;exitDx=0;exitDy=0;fillColor=#ffe6cc;strokeColor=#d79b00;dashed=1;entryX=0;entryY=0.5;entryDx=0;entryDy=0;" parent="1" source="XqBBn5qqIs2NIF__hwd7-99" target="XqBBn5qqIs2NIF__hwd7-108" edge="1">
                    <mxGeometry relative="1" as="geometry">
                        <mxPoint x="220" y="1401.5" as="sourcePoint"/>
                        <mxPoint x="460" y="1431.5" as="targetPoint"/>
                    </mxGeometry>
                </mxCell>
                <mxCell id="XqBBn5qqIs2NIF__hwd7-120" value="normalization" style="edgeLabel;html=1;align=center;verticalAlign=middle;resizable=0;points=[];" parent="XqBBn5qqIs2NIF__hwd7-119" vertex="1" connectable="0">
                    <mxGeometry x="-0.2213" y="-1" relative="1" as="geometry">
                        <mxPoint as="offset"/>
                    </mxGeometry>
                </mxCell>
                <mxCell id="XqBBn5qqIs2NIF__hwd7-121" style="edgeStyle=none;rounded=0;orthogonalLoop=1;jettySize=auto;html=1;fillColor=#ffe6cc;strokeColor=#d79b00;dashed=1;" parent="1" edge="1">
                    <mxGeometry relative="1" as="geometry">
                        <mxPoint x="130" y="1431.5" as="sourcePoint"/>
                        <mxPoint x="420" y="1431.5" as="targetPoint"/>
                    </mxGeometry>
                </mxCell>
                <mxCell id="XqBBn5qqIs2NIF__hwd7-122" value="normalization" style="edgeLabel;html=1;align=center;verticalAlign=middle;resizable=0;points=[];" parent="XqBBn5qqIs2NIF__hwd7-121" vertex="1" connectable="0">
                    <mxGeometry x="-0.1103" y="2" relative="1" as="geometry">
                        <mxPoint x="21" as="offset"/>
                    </mxGeometry>
                </mxCell>
                <mxCell id="XqBBn5qqIs2NIF__hwd7-123" value="" style="rounded=1;whiteSpace=wrap;html=1;fillColor=none;strokeColor=#FF0080;strokeWidth=3;" parent="1" vertex="1">
                    <mxGeometry x="1011" y="1434" width="279" height="172.5" as="geometry"/>
                </mxCell>
                <mxCell id="XqBBn5qqIs2NIF__hwd7-124" value="&lt;b&gt;&lt;font style=&quot;&quot;&gt;FILTERING&lt;/font&gt;&lt;/b&gt;" style="text;html=1;align=center;verticalAlign=middle;whiteSpace=wrap;rounded=0;fontColor=#FF0080;" parent="1" vertex="1">
                    <mxGeometry x="1210" y="1436.5" width="60" height="30" as="geometry"/>
                </mxCell>
                <mxCell id="XqBBn5qqIs2NIF__hwd7-125" value="" style="endArrow=classic;html=1;rounded=0;dashed=1;fillColor=#e1d5e7;strokeColor=#9673a6;edgeStyle=orthogonalEdgeStyle;curved=1;" parent="1" edge="1">
                    <mxGeometry width="50" height="50" relative="1" as="geometry">
                        <mxPoint x="760" y="1506.5" as="sourcePoint"/>
                        <mxPoint x="1140" y="1526.5" as="targetPoint"/>
                        <Array as="points">
                            <mxPoint x="760" y="1476.5"/>
                        </Array>
                    </mxGeometry>
                </mxCell>
                <mxCell id="XqBBn5qqIs2NIF__hwd7-126" value="edge hierarchical dedup" style="edgeLabel;html=1;align=center;verticalAlign=middle;resizable=0;points=[];" parent="XqBBn5qqIs2NIF__hwd7-125" vertex="1" connectable="0">
                    <mxGeometry x="-0.0522" y="-4" relative="1" as="geometry">
                        <mxPoint x="1" as="offset"/>
                    </mxGeometry>
                </mxCell>
                <mxCell id="XqBBn5qqIs2NIF__hwd7-127" style="rounded=0;orthogonalLoop=1;jettySize=auto;html=1;exitX=1;exitY=0.5;exitDx=0;exitDy=0;entryX=0;entryY=0.5;entryDx=0;entryDy=0;" parent="1" source="XqBBn5qqIs2NIF__hwd7-129" target="XqBBn5qqIs2NIF__hwd7-130" edge="1">
                    <mxGeometry relative="1" as="geometry">
                        <mxPoint x="1271.8420929314952" y="1405.571217585827" as="targetPoint"/>
                    </mxGeometry>
                </mxCell>
                <mxCell id="XqBBn5qqIs2NIF__hwd7-128" value="treats" style="edgeLabel;html=1;align=center;verticalAlign=middle;resizable=0;points=[];" parent="XqBBn5qqIs2NIF__hwd7-127" vertex="1" connectable="0">
                    <mxGeometry x="-0.044" y="-1" relative="1" as="geometry">
                        <mxPoint as="offset"/>
                    </mxGeometry>
                </mxCell>
                <mxCell id="XqBBn5qqIs2NIF__hwd7-129" value="CHEBI:1" style="ellipse;whiteSpace=wrap;html=1;aspect=fixed;fillColor=#A9C4EB;strokeColor=#d6b656;fontStyle=1" parent="1" vertex="1">
                    <mxGeometry x="1030" y="1496.5" width="60" height="60" as="geometry"/>
                </mxCell>
                <mxCell id="XqBBn5qqIs2NIF__hwd7-130" value="MONDO:1" style="ellipse;whiteSpace=wrap;html=1;aspect=fixed;fillColor=#A9C4EB;strokeColor=#6c8ebf;fontStyle=1" parent="1" vertex="1">
                    <mxGeometry x="1200" y="1496.5" width="60" height="60" as="geometry"/>
                </mxCell>
                <mxCell id="XqBBn5qqIs2NIF__hwd7-131" value="" style="endArrow=classic;html=1;rounded=0;dashed=1;fillColor=#e1d5e7;strokeColor=#9673a6;edgeStyle=orthogonalEdgeStyle;curved=1;entryX=0.462;entryY=0.594;entryDx=0;entryDy=0;entryPerimeter=0;" parent="1" target="XqBBn5qqIs2NIF__hwd7-123" edge="1">
                    <mxGeometry width="50" height="50" relative="1" as="geometry">
                        <mxPoint x="760" y="1556.5" as="sourcePoint"/>
                        <mxPoint x="1080" y="1536.5" as="targetPoint"/>
                        <Array as="points">
                            <mxPoint x="760" y="1586.5"/>
                            <mxPoint x="1140" y="1586.5"/>
                        </Array>
                    </mxGeometry>
                </mxCell>
                <mxCell id="XqBBn5qqIs2NIF__hwd7-132" value="edge hierarchical dedup" style="edgeLabel;html=1;align=center;verticalAlign=middle;resizable=0;points=[];" parent="XqBBn5qqIs2NIF__hwd7-131" vertex="1" connectable="0">
                    <mxGeometry x="-0.1157" y="-1" relative="1" as="geometry">
                        <mxPoint x="16" as="offset"/>
                    </mxGeometry>
                </mxCell>
                <mxCell id="XqBBn5qqIs2NIF__hwd7-133" value="" style="endArrow=none;html=1;rounded=0;" parent="1" edge="1">
                    <mxGeometry width="50" height="50" relative="1" as="geometry">
                        <mxPoint x="300" y="1786.5" as="sourcePoint"/>
                        <mxPoint x="300" y="1306.5" as="targetPoint"/>
                    </mxGeometry>
                </mxCell>
                <mxCell id="XqBBn5qqIs2NIF__hwd7-134" value="" style="endArrow=none;html=1;rounded=0;" parent="1" edge="1">
                    <mxGeometry width="50" height="50" relative="1" as="geometry">
                        <mxPoint x="630" y="1786.5" as="sourcePoint"/>
                        <mxPoint x="630" y="1306.5" as="targetPoint"/>
                    </mxGeometry>
                </mxCell>
                <mxCell id="XqBBn5qqIs2NIF__hwd7-135" value="" style="endArrow=none;html=1;rounded=0;" parent="1" edge="1">
                    <mxGeometry width="50" height="50" relative="1" as="geometry">
                        <mxPoint x="941" y="1796.5" as="sourcePoint"/>
                        <mxPoint x="941" y="1316.5" as="targetPoint"/>
                    </mxGeometry>
                </mxCell>
                <mxCell id="XqBBn5qqIs2NIF__hwd7-136" value="Node hierarchical dedup&lt;div&gt;(&lt;span style=&quot;color: rgb(227, 148, 220); background-color: rgb(24, 24, 24); font-family: Menlo, Monaco, &amp;quot;Courier New&amp;quot;, monospace; white-space: pre;&quot;&gt;determine_most_specific_category&lt;/span&gt;&lt;span style=&quot;background-color: transparent; color: light-dark(rgb(0, 0, 0), rgb(255, 255, 255));&quot;&gt;)&lt;/span&gt;&lt;br&gt;&lt;/div&gt;" style="rounded=1;whiteSpace=wrap;html=1;" parent="1" vertex="1">
                    <mxGeometry x="520" y="1280.5" width="245" height="50" as="geometry"/>
                </mxCell>
                <mxCell id="XqBBn5qqIs2NIF__hwd7-137" value="&lt;b&gt;&lt;font style=&quot;color: rgb(103, 171, 159);&quot;&gt;RELEASE&lt;/font&gt;&lt;/b&gt;" style="text;html=1;align=center;verticalAlign=middle;whiteSpace=wrap;rounded=0;" parent="1" vertex="1">
                    <mxGeometry x="857" y="1451.5" width="60" height="30" as="geometry"/>
                </mxCell>
                <mxCell id="XqBBn5qqIs2NIF__hwd7-138" value="Edge hierarchical dedup&lt;div&gt;(&lt;span style=&quot;color: rgb(227, 148, 220); background-color: rgb(24, 24, 24); font-family: Menlo, Monaco, &amp;quot;Courier New&amp;quot;, monospace; white-space: pre;&quot;&gt;biolink_deduplicate_edges&lt;/span&gt;&lt;span style=&quot;background-color: transparent; color: light-dark(rgb(0, 0, 0), rgb(255, 255, 255));&quot;&gt;)&lt;/span&gt;&lt;br&gt;&lt;/div&gt;" style="rounded=1;whiteSpace=wrap;html=1;" parent="1" vertex="1">
                    <mxGeometry x="880" y="1286.5" width="210" height="46" as="geometry"/>
                </mxCell>
                <mxCell id="XqBBn5qqIs2NIF__hwd7-139" value="" style="shape=curlyBracket;whiteSpace=wrap;html=1;rounded=1;labelPosition=left;verticalLabelPosition=middle;align=center;verticalAlign=middle;direction=south;fontColor=#4C0099;strokeColor=light-dark(#4c0099, #ededed);strokeWidth=3;" parent="1" vertex="1">
                    <mxGeometry x="30" y="1220" width="810" height="66.5" as="geometry"/>
                </mxCell>
                <mxCell id="XqBBn5qqIs2NIF__hwd7-140" value="integration" style="text;html=1;align=center;verticalAlign=middle;whiteSpace=wrap;rounded=0;fontSize=15;fontStyle=1;fontColor=#4C0099;" parent="1" vertex="1">
                    <mxGeometry x="405" y="1190" width="60" height="30" as="geometry"/>
                </mxCell>
                <mxCell id="XqBBn5qqIs2NIF__hwd7-141" value="" style="shape=curlyBracket;whiteSpace=wrap;html=1;rounded=1;labelPosition=left;verticalLabelPosition=middle;align=center;verticalAlign=middle;direction=south;fontColor=#4C0099;strokeColor=light-dark(#CC0066,#EDEDED);strokeWidth=3;" parent="1" vertex="1">
                    <mxGeometry x="890" y="1218" width="410" height="68.5" as="geometry"/>
                </mxCell>
                <mxCell id="XqBBn5qqIs2NIF__hwd7-142" style="edgeStyle=none;rounded=0;orthogonalLoop=1;jettySize=auto;html=1;entryX=-0.006;entryY=0.557;entryDx=0;entryDy=0;fillColor=#e1d5e7;strokeColor=#9673a6;dashed=1;entryPerimeter=0;" parent="1" target="XqBBn5qqIs2NIF__hwd7-95" edge="1">
                    <mxGeometry relative="1" as="geometry">
                        <mxPoint x="410" y="1488" as="sourcePoint"/>
                        <mxPoint x="540" y="1260.5" as="targetPoint"/>
                    </mxGeometry>
                </mxCell>
                <mxCell id="XqBBn5qqIs2NIF__hwd7-143" value="node hierarchical dedup" style="edgeLabel;html=1;align=center;verticalAlign=middle;resizable=0;points=[];" parent="XqBBn5qqIs2NIF__hwd7-142" vertex="1" connectable="0">
                    <mxGeometry x="-0.0648" y="-2" relative="1" as="geometry">
                        <mxPoint as="offset"/>
                    </mxGeometry>
                </mxCell>
                <mxCell id="XqBBn5qqIs2NIF__hwd7-144" style="edgeStyle=none;rounded=0;orthogonalLoop=1;jettySize=auto;html=1;entryX=0;entryY=0;entryDx=0;entryDy=0;fillColor=#e1d5e7;strokeColor=#9673a6;dashed=1;" parent="1" source="XqBBn5qqIs2NIF__hwd7-108" target="XqBBn5qqIs2NIF__hwd7-118" edge="1">
                    <mxGeometry relative="1" as="geometry">
                        <mxPoint x="420" y="1498" as="sourcePoint"/>
                        <mxPoint x="658" y="1546" as="targetPoint"/>
                    </mxGeometry>
                </mxCell>
                <mxCell id="XqBBn5qqIs2NIF__hwd7-145" value="node hierarchical dedup" style="edgeLabel;html=1;align=center;verticalAlign=middle;resizable=0;points=[];" parent="XqBBn5qqIs2NIF__hwd7-144" vertex="1" connectable="0">
                    <mxGeometry x="-0.0648" y="-2" relative="1" as="geometry">
                        <mxPoint x="-63" y="-31" as="offset"/>
                    </mxGeometry>
                </mxCell>
                <mxCell id="XqBBn5qqIs2NIF__hwd7-146" style="edgeStyle=none;rounded=0;orthogonalLoop=1;jettySize=auto;html=1;fillColor=#e1d5e7;strokeColor=#9673a6;dashed=1;exitX=1;exitY=0.5;exitDx=0;exitDy=0;" parent="1" source="XqBBn5qqIs2NIF__hwd7-111" edge="1">
                    <mxGeometry relative="1" as="geometry">
                        <mxPoint x="420" y="1498" as="sourcePoint"/>
                        <mxPoint x="640" y="1546" as="targetPoint"/>
                    </mxGeometry>
                </mxCell>
                <mxCell id="XqBBn5qqIs2NIF__hwd7-147" value="node hierarchical dedup" style="edgeLabel;html=1;align=center;verticalAlign=middle;resizable=0;points=[];" parent="XqBBn5qqIs2NIF__hwd7-146" vertex="1" connectable="0">
                    <mxGeometry x="-0.0648" y="-2" relative="1" as="geometry">
                        <mxPoint as="offset"/>
                    </mxGeometry>
                </mxCell>
                <mxCell id="XqBBn5qqIs2NIF__hwd7-148" style="edgeStyle=none;rounded=0;orthogonalLoop=1;jettySize=auto;html=1;fillColor=#e1d5e7;strokeColor=#9673a6;dashed=1;exitX=1;exitY=0.5;exitDx=0;exitDy=0;entryX=0;entryY=1;entryDx=0;entryDy=0;" parent="1" source="XqBBn5qqIs2NIF__hwd7-112" target="XqBBn5qqIs2NIF__hwd7-118" edge="1">
                    <mxGeometry relative="1" as="geometry">
                        <mxPoint x="430" y="1508" as="sourcePoint"/>
                        <mxPoint x="668" y="1556" as="targetPoint"/>
                    </mxGeometry>
                </mxCell>
                <mxCell id="XqBBn5qqIs2NIF__hwd7-149" value="node hierarchical dedup" style="edgeLabel;html=1;align=center;verticalAlign=middle;resizable=0;points=[];" parent="XqBBn5qqIs2NIF__hwd7-148" vertex="1" connectable="0">
                    <mxGeometry x="-0.0648" y="-2" relative="1" as="geometry">
                        <mxPoint x="-61" y="31" as="offset"/>
                    </mxGeometry>
                </mxCell>
            </root>
        </mxGraphModel>
    </diagram>
</mxfile>